<?xml version="1.0" encoding="UTF-8" standalone="no" ?>
<!DOCTYPE svg PUBLIC "-//W3C//DTD SVG 1.1//EN" "http://www.w3.org/Graphics/SVG/1.1/DTD/svg11.dtd">
<svg xmlns="http://www.w3.org/2000/svg" xmlns:xlink="http://www.w3.org/1999/xlink" version="1.1" width="350" height="350" viewBox="0 0 350 350" xml:space="preserve">
<desc>Created with Fabric.js 1.7.22</desc>
<defs>
</defs>
<g id="icon" style="stroke: none; stroke-width: 1; stroke-dasharray: none; stroke-linecap: butt; stroke-linejoin: miter; stroke-miterlimit: 10; fill: none; fill-rule: nonzero; opacity: 1;" transform="translate(-1.9444444444444287 -1.9444444444444287) scale(3.89 3.89)" >
	<path d="M 76.887 60.444 h -4.415 c -0.828 0 -1.5 -0.672 -1.5 -1.5 s 0.672 -1.5 1.5 -1.5 h 4.415 C 82.463 57.444 87 52.907 87 47.331 c 0 -5.335 -4.179 -9.764 -9.514 -10.081 l -1.581 -0.094 l 0.18 -1.573 c 0.1 -0.872 0.147 -1.652 0.147 -2.385 c 0 -11.438 -9.305 -20.742 -20.742 -20.742 c -7.165 0 -13.729 3.641 -17.559 9.741 l -0.745 1.187 l -1.235 -0.663 c -2.294 -1.231 -4.889 -1.882 -7.502 -1.882 c -8.491 0 -15.457 6.65 -15.858 15.14 l -0.057 1.196 l -1.179 0.21 C 6.514 38.244 3 42.428 3 47.331 c 0 5.576 4.537 10.113 10.113 10.113 h 5.186 c 0.829 0 1.5 0.672 1.5 1.5 s -0.671 1.5 -1.5 1.5 h -5.186 C 5.883 60.444 0 54.562 0 47.331 c 0 -5.966 4.007 -11.109 9.683 -12.645 c 1.025 -9.537 9.057 -16.849 18.766 -16.849 c 2.649 0 5.282 0.563 7.693 1.637 c 4.46 -6.299 11.596 -10.019 19.349 -10.019 c 13.092 0 23.742 10.651 23.742 23.742 c 0 0.401 -0.013 0.813 -0.037 1.239 C 85.365 35.536 90 40.93 90 47.331 C 90 54.562 84.117 60.444 76.887 60.444 z" style="stroke: none; stroke-width: 1; stroke-dasharray: none; stroke-linecap: butt; stroke-linejoin: miter; stroke-miterlimit: 10; fill: rgb(0,0,0); fill-rule: nonzero; opacity: 1;" transform=" matrix(1 0 0 1 0 0) " stroke-linecap="round" />
	<path d="M 67.472 34.672 c -0.828 0 -1.5 -0.671 -1.5 -1.5 c 0 -5.779 -4.702 -10.481 -10.481 -10.481 c -0.828 0 -1.5 -0.671 -1.5 -1.5 s 0.672 -1.5 1.5 -1.5 c 7.434 0 13.481 6.048 13.481 13.481 C 68.972 34.001 68.3 34.672 67.472 34.672 z" style="stroke: none; stroke-width: 1; stroke-dasharray: none; stroke-linecap: butt; stroke-linejoin: miter; stroke-miterlimit: 10; fill: rgb(0,0,0); fill-rule: nonzero; opacity: 1;" transform=" matrix(1 0 0 1 0 0) " stroke-linecap="round" />
	<path d="M 21.859 37.381 c -0.024 0 -0.048 0 -0.072 -0.001 c -0.828 -0.04 -1.467 -0.742 -1.428 -1.569 c 0.205 -4.33 3.758 -7.721 8.089 -7.721 c 0.829 0 1.5 0.671 1.5 1.5 s -0.671 1.5 -1.5 1.5 c -2.727 0 -4.963 2.136 -5.092 4.862 C 23.319 36.755 22.655 37.381 21.859 37.381 z" style="stroke: none; stroke-width: 1; stroke-dasharray: none; stroke-linecap: butt; stroke-linejoin: miter; stroke-miterlimit: 10; fill: rgb(0,0,0); fill-rule: nonzero; opacity: 1;" transform=" matrix(1 0 0 1 0 0) " stroke-linecap="round" />
	<path d="M 66.796 45.324 c -0.373 -0.74 -1.276 -1.037 -2.015 -0.663 c -0.739 0.373 -1.036 1.275 -0.663 2.015 c 1.407 2.789 1.404 5.023 0.005 7.932 L 52.924 76.392 L 40.746 45.451 c -0.303 -0.771 -1.174 -1.149 -1.945 -0.847 c -0.771 0.304 -1.15 1.174 -0.847 1.946 l 6.198 15.746 l -7.247 14.095 L 24.728 45.451 c -0.304 -0.771 -1.175 -1.149 -1.945 -0.847 c -0.771 0.304 -1.15 1.174 -0.847 1.946 l 13.392 34.025 c 0.216 0.548 0.733 0.919 1.321 0.948 c 0.025 0.001 0.05 0.002 0.075 0.002 c 0.56 0 1.076 -0.313 1.333 -0.814 l 7.557 -14.698 l 5.732 14.563 c 0.216 0.548 0.732 0.919 1.32 0.948 c 0.025 0.001 0.051 0.002 0.075 0.002 c 0.561 0 1.076 -0.313 1.334 -0.814 l 12.732 -24.768 C 68.614 52.193 68.61 48.918 66.796 45.324 z" style="stroke: none; stroke-width: 1; stroke-dasharray: none; stroke-linecap: butt; stroke-linejoin: miter; stroke-miterlimit: 10; fill: rgb(0,0,0); fill-rule: nonzero; opacity: 1;" transform=" matrix(1 0 0 1 0 0) " stroke-linecap="round" />
</g>
</svg>