<svg width="252px" height="140px" viewBox="0 0 252 140" xmlns="http://www.w3.org/2000/svg" fill-rule="evenodd" clip-rule="evenodd" stroke-linejoin="round" stroke-miterlimit="2"><path d="M148.741 71.286a4.524 4.524 0 01-.398-1.852c0-3.521 1.223-7.131 3.699-10.817 2.419-3.603 5.429-6.856 9.031-9.759a52.569 52.569 0 0111.74-7.157c4.284-1.898 8.326-2.84 12.122-2.84 1.466 0 3.31.441 4.537 1.886.806.95 1.367 2.344 1.327 4.38-.103 5.278-1.562 17.673-1.919 21.425.8-.536 5.195-2.468 9.023-2.699a45.632 45.632 0 014.125-7.744c2.272-3.408 4.817-6.164 7.629-8.273 2.912-2.184 5.993-2.957 8.798-2.822 1.274.061 5.28 2.009 6.896 5.346 1.384 2.86.738 7.217-2.691 11.101-2.426 2.748-6.307 5.212-8.881 6.047-3.911 1.269-6.691 1.033-8.999.988-1.294 2.891-2.142 6.883-2.294 11.319-.149 4.377 1.74 8.65 3.63 10.639l.022.024c.634.726 1.598 1.178 2.868 1.404 1.372.245 2.987.058 4.848-.529 1.953-.617 4.187-1.727 6.705-3.32 2.549-1.612 5.331-3.877 8.352-6.795 4.185-3.975 7.795-8.107 10.828-12.396 3.061-4.327 5.646-8.02 7.757-11.08.037-.054 1.257-2.041 2.103-.846.6.848 1.025 2.951 1.065 5.024.039 2.067-.275 4.648-1.111 6.177-2.188 4.001-4.826 7.776-8.241 11.832-3.415 4.056-7.044 7.603-10.886 10.645-3.872 3.066-7.881 5.349-12.022 6.855-4.247 1.545-8.412 1.596-12.494.162-4.114-1.446-7.05-3.822-8.829-7.103-1.751-3.228-2.631-6.838-2.631-10.833 0-3.492.55-7.092 1.654-10.797-3.437.891-6.811 3.198-7.747 4.098-1.354 18.658-5.012 27.093-6.711 31.605a106.674 106.674 0 01-5.904 13.006 72.256 72.256 0 01-7.768 11.611c-2.965 3.612-5.508 5.884-9.064 8.147-1.714 1.097-4.049 1.642-6.118 1.551-1.447-.063-2.762-.441-3.683-1.111-.341-.248-1.367-.832-2.203-2.409-.79-1.49-1.425-3.923-.996-7.943.544-5.105 3.219-12.334 9.156-24.236 7.417-14.867 17.763-26.449 26.04-32.602.113-1.12.819-11.758.889-14.847-1.542 1.769-5.656 6.674-11.544 10.884-6.806 4.866-12.779 7.181-15.833 7.55a9.742 9.742 0 01-1.638.073c-2.509 5.202-7.858 15.02-16.149 21.531-.88.691-2.64 1.508-4.415 1.39-1.785-.119-3.341-.935-4.652-2.475-.931-.948-1.534-2.547-1.71-4.83-.16-2.088-.188-4.416-.08-6.985.106-2.552.319-5.212.638-7.977.316-2.74.579-5.242.79-7.507.208-2.241.313-3.349.313-4.861 0-.514-.029-1.712-.095-2.056-3.051 1.63-7.401 9.506-9.976 14.259-2.768 5.111-9.856 20.491-10.654 21.396-.226.256-5.858.248-6.071-.061-.213-.31-.472-1.919-.431-3.247.079-2.548.46-7.222.778-10.62.156-1.667.332-3.353.527-5.059a32.639 32.639 0 01-1.881 2.796c-3.205 4.223-7.044 7.603-10.886 10.645-3.872 3.066-7.881 5.349-12.022 6.855-4.247 1.545-8.412 1.596-12.494.162-4.114-1.446-7.05-3.822-8.829-7.103-1.751-3.228-2.631-6.838-2.631-10.833 0-3.935.698-8.005 2.1-12.21 1.396-4.188 3.223-7.973 5.478-11.356 2.272-3.408 4.817-6.164 7.629-8.273 2.912-2.184 5.993-2.957 8.798-2.822 1.274.061 5.28 2.009 6.896 5.346 1.384 2.86.738 7.217-2.691 11.101-2.426 2.748-6.307 5.212-8.881 6.047-3.911 1.269-6.691 1.033-8.999.988-1.294 2.891-2.142 6.883-2.294 11.319-.149 4.377 1.74 8.65 3.63 10.639l.022.024c.634.726 1.598 1.178 2.868 1.404 1.372.245 2.987.058 4.848-.529 1.953-.617 4.187-1.727 6.705-3.32 2.549-1.612 5.331-3.877 8.352-6.795 4.185-3.975 7.795-8.107 10.828-12.396 2.882-4.074 4.888-6.95 7.387-15.338l.148-.69.008-.032c.565-2.858 1.079-4.687 3.834-4.851.951-.056 4.51.369 6.933.813.06 1.884-6.638 21.367-7.55 25.676.131-.238 7.078-14.182 12.242-18.868 2.075-1.883 3.444-2.863 5.567-3.344 2.114-.479 3.758-.227 5.047.376 1.918.898 3.059 2.603 3.766 4.018.995 2.101 1.454 4.835 1.343 8.207-.106 3.243-.673 6.418-1.045 9.608-.371 3.175-2.225 14.252-2.179 15.544 6.132-4.153 11.807-12.714 14.901-18.675zm32.032 6.524c-4.316 4.485-11.884 15.416-18.083 28.289-6.455 13.405-8.002 19.703-8.327 23.19 8.377-5.11 14.607-15.875 17.202-21.102 7.243-14.596 8.246-22.925 9.208-30.377zM18.742 48.083c-.091.796-.199 1.771-.322 2.925-.317 2.958-.713 6.524-1.189 10.697a2428.42 2428.42 0 01-1.584 13.547c-.581 4.856-3.565 31.938-3.721 33.412-.05.472-10.002 1.23-10.128.146-.035-.298-.038-.913.077-1.836.845-8.344 9.77-91.395 10.95-100.305.577-4.354.745-4.304 2.691-4.784 2.608-.644 8.416-.659 16.086 2.118a19.777 19.777 0 016.104 3.547c1.819 1.543 3.337 3.497 4.549 5.867 1.219 2.381 1.782 5.176 1.671 8.379-.11 4.851-1.899 9.069-5.371 12.652-3.215 3.316-8.237 6.677-12.468 8.879a1239.37 1239.37 0 007.114 14.898l7.841 16.157a1971.773 1971.773 0 017.527 15.688c2.427 5.118 4.697 9.841 6.807 14.168.12.246-3.88 2.046-6.182 2.331-1.446.179-1.676.174-2.174-.794-5.003-9.717-9.993-19.458-14.434-29.504-4.114-9.305-8.729-18.702-13.844-28.188zm161.437-1.601a4.76 4.76 0 00-.583.149c-2.251.748-6.18 2.949-7.438 3.848-1.824 1.303-5.891 4.425-7.768 6.301-1.311 1.311-4.802 5.326-6.394 7.644a7.475 7.475 0 00-.265.415c.914-.15 2.054-.526 3.33-1.063 2.883-1.214 17.006-9.604 19.118-17.294zm26.327 16.983c6.02.764 10.647-4.957 11.631-6.564 1.621-2.65 1.404-4.928.394-6.305-.147-.03-.321.014-.527.088-.32.114-.683.312-1.094.586-.903.602-7.82 6.539-10.404 12.195zm-141.4 0c6.02.764 10.647-4.957 11.631-6.564 1.621-2.65 1.404-4.928.394-6.305-.147-.03-.321.014-.527.088-.32.114-.683.312-1.094.586-.903.602-7.82 6.539-10.404 12.195zM22.826 10.84c-.284 2.185-1.214 9.083-1.555 12.366-.39 3.761-1.082 8.754-1.564 12.83 1.668-.508 3.981-1.332 5.506-2.01 1.818-.807 9.391-3.829 9.908-12.407.314-5.214-4.336-9.199-8.165-10.124-1.305-.316-3.344-.505-4.13-.655z" fill="#141c3a" fill-rule="nonzero"/></svg>